<?xml version="1.0" standalone="no"?><!DOCTYPE svg PUBLIC "-//W3C//DTD SVG 1.1//EN"
        "http://www.w3.org/Graphics/SVG/1.1/DTD/svg11.dtd">
<svg t="1703748607556" class="icon" viewBox="0 0 1024 1024" version="1.1" xmlns="http://www.w3.org/2000/svg" p-id="2371"
     width="16" height="16">
    <path d="M469.333333 810.453333c0-11.648 9.450667-21.12 21.546667-21.12h42.24c11.904 0 21.546667 9.621333 21.546667 21.12v85.76c0 11.648-9.450667 21.12-21.546667 21.12h-42.24c-11.904 0-21.546667-9.621333-21.546667-21.12v-85.76z m133.909334-209.984c-8.469333 3.285333-16.896 6.762667-25.002667 10.837334-15.488 7.786667-23.765333 20.437333-24.341333 38.016-0.234667 7.317333 0.085333 14.848-1.514667 21.909333-4.672 20.629333-24.341333 34.688-44.309333 32.554667-22.549333-2.410667-38.272-19.328-39.125334-41.6-2.304-60.096 22.698667-103.829333 77.205334-130.005334a243.626667 243.626667 0 0 1 22.549333-9.728c73.92-26.666667 120.213333-99.818667 112-177.28-8.234667-77.802667-69.504-141.141333-146.410667-151.210666-100.672-13.226667-189.845333 62.805333-193.173333 164.330666-0.170667 5.546667-0.426667 11.285333-1.92 16.576-5.610667 20.16-25.898667 33.365333-45.909333 30.4-22.016-3.285333-37.546667-20.757333-37.290667-43.434666 0.768-62.72 20.394667-119.061333 62.293333-165.76 68.8-76.693333 155.306667-105.770667 255.061334-80.512 100.714667 25.493333 163.114667 92.757333 187.434666 194.197333 4.138667 17.322667 4.906667 35.477333 7.210667 53.226667-2.261333 106.496-65.984 198.954667-164.757333 237.482666z"
          fill="#e6e6e6" p-id="2372"></path>
</svg>