<?xml version="1.0" standalone="no"?><!DOCTYPE svg PUBLIC "-//W3C//DTD SVG 1.1//EN"
        "http://www.w3.org/Graphics/SVG/1.1/DTD/svg11.dtd">
<svg t="1704779271491" class="icon" viewBox="124 124 900 900" version="1.1" xmlns="http://www.w3.org/2000/svg"
     p-id="2943" width="16" height="16">
    <path d="M768 482v296H256V482h512m0-64H256c-35.35 0-64 28.65-64 64v296c0 35.35 28.65 64 64 64h512c35.35 0 64-28.65 64-64V482c0-35.35-28.65-64-64-64zM703.84 354v64h-64v-64c0-34.19-13.31-66.33-37.49-90.51-24.18-24.18-56.32-37.49-90.51-37.49-34.19 0-66.33 13.31-90.51 37.49-24.18 24.18-37.49 56.32-37.49 90.51v64h-64v-64c0-106.04 85.96-192 192-192 106.03 0 192 85.96 192 192z"
          p-id="2944"></path>
</svg>