<?xml version="1.0" standalone="no"?><!DOCTYPE svg PUBLIC "-//W3C//DTD SVG 1.1//EN"
        "http://www.w3.org/Graphics/SVG/1.1/DTD/svg11.dtd">
<svg t="1703659627381" class="icon" viewBox="0 0 1024 1024" version="1.1" xmlns="http://www.w3.org/2000/svg" p-id="7660"
     width="16" height="16">
    <path d="M572.8 335.018667l-38.570667-41.898667a263.68 263.68 0 0 1 123.946667 44.330667 269.909333 269.909333 0 0 1 98.176 121.130666 274.986667 274.986667 0 0 1 15.616 156.245334 272.298667 272.298667 0 0 1-72.277333 138.752 265.173333 265.173333 0 0 1-135.68 74.666666 262.4 262.4 0 0 1-153.6-14.336 267.349333 267.349333 0 0 1-120.106667-98.56 273.664 273.664 0 0 1-44.8-124.586666c-2.304-22.442667-20.053333-42.282667-44.458667-43.52-25.728-1.365333-49.066667 19.456-46.634666 47.104 5.376 60.928 25.472 121.6 58.922666 172.458666a359.594667 359.594667 0 0 0 159.786667 133.546667 353.578667 353.578667 0 0 0 205.994667 21.546667 356.693333 356.693333 0 0 0 183.296-97.578667 365.312 365.312 0 0 0 99.541333-184.021333 368.810667 368.810667 0 0 0-17.237333-209.152 362.922667 362.922667 0 0 0-128.341334-164.693334 355.413333 355.413333 0 0 0-152.106666-61.44l35.84-27.562666a45.653333 45.653333 0 1 0-55.722667-72.405334l-140.16 107.946667a45.738667 45.738667 0 0 0-17.664 32.554667 46.293333 46.293333 0 0 0 11.946667 35.072L505.642667 396.8a45.653333 45.653333 0 0 0 67.157333-61.866667z"
          fill="#e6e6e6" p-id="7661"></path>
</svg>