<?xml version="1.0" standalone="no"?><!DOCTYPE svg PUBLIC "-//W3C//DTD SVG 1.1//EN"
        "http://www.w3.org/Graphics/SVG/1.1/DTD/svg11.dtd">
<svg t="1704779240542" class="icon" viewBox="124 124 900 900" version="1.1" xmlns="http://www.w3.org/2000/svg"
     p-id="8946" width="16" height="16">
    <path d="M672.78 172c-106.04 0-192 85.96-192 192v64H223.22c-35.35 0-64 28.65-64 64v296c0 35.35 28.65 64 64 64h385.56c35.35 0 64-28.65 64-64V492c0-35.35-28.65-64-64-64h-64v-62.52c0-34.84 13.55-68.54 38.43-92.92 23.75-23.28 54.98-36.22 88.24-36.55 33.89-0.34 66.75 12.86 90.94 36.59 24.75 24.27 38.39 56.79 38.39 91.4v32c0 17.67 14.33 32 32 32s32-14.33 32-32v-32c0-106.04-85.96-192-192-192z m-64 616H223.22V492h385.56v296z"
          p-id="8947" fill="#2c2c2c"></path>
</svg>